<svg width="36" height="36" viewBox="0 0 36 36" fill="none" xmlns="http://www.w3.org/2000/svg">
<g id="icons8-facebook (1) 1">
<path id="Vector" d="M29.5199 2.87988H6.47988C4.49268 2.87988 2.87988 4.49268 2.87988 6.47988V29.5199C2.87988 31.5071 4.49268 33.1199 6.47988 33.1199H29.5199C31.5071 33.1199 33.1199 31.5071 33.1199 29.5199V6.47988C33.1199 4.49268 31.5071 2.87988 29.5199 2.87988ZM26.6399 13.6799H25.1999C23.6591 13.6799 23.0399 14.0399 23.0399 15.1199V17.2799H26.6399L25.9199 20.8799H23.0399V31.6799H19.4399V20.8799H16.5599V17.2799H19.4399V15.1199C19.4399 12.2399 20.8799 10.0799 23.7599 10.0799C25.8479 10.0799 26.6399 10.7999 26.6399 10.7999V13.6799Z" fill="black"/>
</g>
</svg>
