<svg width="28" height="28" viewBox="0 0 28 28" fill="none" xmlns="http://www.w3.org/2000/svg">
<g id="icons8-&#208;&#187;&#208;&#190;&#208;&#179;&#208;&#190;&#209;&#130;&#208;&#184;&#208;&#191;-twitter (1) 1" clip-path="url(#clip0_72_177)">
<path id="Vector" d="M28.0351 5.84488C27.0004 6.30426 25.8913 6.61269 24.7254 6.75269C25.9154 6.03957 26.8298 4.91082 27.2585 3.5677C26.1473 4.22613 24.9113 4.7052 23.601 4.96332C22.551 3.84332 21.0548 3.14551 19.3988 3.14551C16.2182 3.14551 13.6392 5.72238 13.6392 8.90301C13.6392 9.35363 13.6917 9.79332 13.7901 10.2155C9.00385 9.97488 4.76228 7.68238 1.92072 4.1977C1.42416 5.05082 1.14197 6.03957 1.14197 7.09394C1.14197 9.09113 2.15697 10.8543 3.70353 11.8889C2.75853 11.8583 1.87041 11.598 1.09385 11.1671C1.09385 11.1911 1.09385 11.2152 1.09385 11.2393C1.09385 14.0305 3.0801 16.3558 5.71166 16.8874C5.23041 17.0186 4.72072 17.0886 4.19572 17.0886C3.82385 17.0886 3.46291 17.0536 3.11072 16.9836C3.84572 19.2696 5.97197 20.9386 8.48978 20.9846C6.52103 22.5289 4.03822 23.4477 1.33885 23.4477C0.87291 23.4477 0.415723 23.4214 -0.0327148 23.3668C2.51353 25.003 5.54103 25.9546 8.79385 25.9546C19.3857 25.9546 25.1782 17.1805 25.1782 9.57238C25.1782 9.32301 25.1717 9.07144 25.1629 8.82644C26.2873 8.01488 27.2629 6.99988 28.0351 5.84488Z" fill="black"/>
</g>
<defs>
<clipPath id="clip0_72_177">
<rect width="28" height="28" fill="white"/>
</clipPath>
</defs>
</svg>
