<svg width="36" height="36" viewBox="0 0 36 36" fill="none" xmlns="http://www.w3.org/2000/svg">
<g id="icons8-&#208;&#179;&#209;&#131;&#208;&#179;&#208;&#187;-&#208;&#191;&#208;&#187;&#209;&#142;&#209;&#129; 1">
<path id="Vector" d="M12.375 7.875C6.78375 7.875 2.25 12.4088 2.25 18C2.25 23.5913 6.78375 28.125 12.375 28.125C17.9663 28.125 22.5 23.5913 22.5 18C22.5 17.3053 22.4241 16.6275 22.2919 15.975L22.2356 15.75H12.375V19.125H19.125C18.5878 22.3172 15.7191 24.75 12.375 24.75C8.64563 24.75 5.625 21.7294 5.625 18C5.625 14.2706 8.64563 11.25 12.375 11.25C14.0625 11.25 15.6009 11.8744 16.785 12.8981L19.2038 10.53C17.4038 8.88188 15.0075 7.875 12.375 7.875ZM28.125 12.375V15.75H24.75V18H28.125V21.375H30.375V18H33.75V15.75H30.375V12.375H28.125Z" fill="black"/>
</g>
</svg>
