<svg width="36" height="36" viewBox="0 0 36 36" fill="none" xmlns="http://www.w3.org/2000/svg">
<g id="icons8-youtube-play 1">
<path id="Vector" d="M32.3268 10.44C32.0399 8.85654 30.673 7.70342 29.0868 7.34342C26.713 6.83998 22.3199 6.47998 17.5668 6.47998C12.8165 6.47998 8.35304 6.83998 5.97647 7.34342C4.39304 7.70342 3.02335 8.78342 2.73647 10.44C2.44679 12.24 2.15991 14.76 2.15991 18C2.15991 21.24 2.44679 23.76 2.80679 25.56C3.09647 27.1434 4.46335 28.2965 6.04679 28.6565C8.56679 29.16 12.8868 29.52 17.6399 29.52C22.393 29.52 26.713 29.16 29.233 28.6565C30.8165 28.2965 32.1833 27.2165 32.473 25.56C32.7599 23.76 33.1199 21.1669 33.193 18C33.0468 14.76 32.6868 12.24 32.3268 10.44ZM13.6799 23.04V12.96L22.4633 18L13.6799 23.04Z" fill="black"/>
</g>
</svg>
